# xmcd
#
# Track frame offsets:
# 150
# 18707
# 36355
# 51432
# 73106
# 91307
# 111588
# 130319
# 152108
# 166394
# 181227
# 192769
#
# Disc length: 3010 seconds
#
#
# Revision: 0
# Processed by: cddbd v1.5.2PL0 Copyright (c) Steve Scherf et al.
# Submitted via: FreeRIP 2.941 
#
DISCID=ad0bc00c
DTITLE=The Infamous Stringdusters - Fork In The Road
DYEAR=2007
DGENRE=Bluegrass
TTITLE0=No More To Leave You Behind
TTITLE1=Fork In The Road
TTITLE2=Starry Night
TTITLE3=3 X 5
TTITLE4=40 West
TTITLE5=Tragic Life
TTITLE6=Poor Boy's Delight
TTITLE7=No Resolution
TTITLE8=My Destination
TTITLE9=Letter From Prison
TTITLE10=Dream You Back
TTITLE11=Moon Man
EXTD=
EXTT0=
EXTT1=
EXTT2=
EXTT3=
EXTT4=
EXTT5=
EXTT6=
EXTT7=
EXTT8=
EXTT9=
EXTT10=
EXTT11=
PLAYORDER=
